<svg width="400" height="400" viewBox="0 0 400 400" fill="none" xmlns="http://www.w3.org/2000/svg">
  <style>
    path { fill: #000; }
    @media (prefers-color-scheme: dark) {path { fill: #FFF; }}
  </style>
<path fill-rule="evenodd" clip-rule="evenodd" d="M63 0C28.2061 0 0 28.2061 0 63V337C0 371.794 28.2061 400 63 400H337C371.794 400 400 371.794 400 337V63C400 28.2061 371.794 0 337 0H63ZM42.1514 257.896C41.0934 261.802 40.5645 265.627 40.5645 269.37C40.5645 270.265 40.6458 271.527 40.8086 273.154C46.5866 284.385 55.986 290 69.0068 290C73.971 290 78.569 288.901 82.8008 286.704C87.1139 284.507 90.654 281.455 93.4209 277.549C96.2692 273.561 98.0189 269.004 98.6699 263.877H98.5479C99.443 255.169 100.257 243.369 100.989 228.477C101.722 213.584 102.251 198.936 102.576 184.531L96.5947 143.149L100.745 142.539L109.778 179.526L131.507 258.018C127.845 265.667 125.81 273.602 125.403 281.821C127.926 285.158 131.954 287.762 137.488 289.634C143.104 291.506 149.288 292.441 156.043 292.441C162.635 292.441 168.86 291.546 174.72 289.756C180.66 287.965 185.34 285.443 188.758 282.188C188.351 276.979 187.293 271.649 185.584 266.196C183.956 260.744 182.003 255.78 179.725 251.304C186.316 235.109 193.6 212.241 201.575 182.7L207.557 140.83H211.341L210.73 181.724L218.055 258.506L213.66 286.46C215.125 288.413 218.055 289.878 222.449 290.854C226.925 291.912 231.401 292.441 235.877 292.441C240.434 292.441 244.422 292.075 247.84 291.343C251.339 290.692 254.676 289.715 257.85 288.413C261.023 284.914 263.221 280.479 264.441 275.107C265.174 271.527 265.54 267.905 265.54 264.243C265.54 261.232 265.377 258.099 265.052 254.844C264.726 251.507 264.523 249.554 264.441 248.984L264.075 245.933C261.634 223.472 258.012 198.813 253.211 171.958C248.491 145.021 243.527 122.113 238.318 103.232L234.046 101.279C226.071 100.954 219.926 100.791 215.613 100.791H211.585C201.412 100.791 192.013 101.32 183.387 102.378C174.842 103.436 166.622 105.226 158.729 107.749C157.833 111.737 157.386 115.439 157.386 118.857C157.386 124.066 158.362 128.949 160.315 133.506L180.579 136.924H179.969L176.917 150.229C171.22 176.108 166.419 196.128 162.513 210.288C161.048 204.185 159.705 198.732 158.484 193.931C150.916 163.006 145.545 141.44 142.371 129.233C139.279 116.945 136.837 108.278 135.047 103.232L130.774 101.279C119.707 100.954 110.389 100.791 102.82 100.791C94.6823 100.791 85.3643 101.442 74.8662 102.744C64.4495 103.965 57.0846 105.592 52.7715 107.627C51.0625 112.103 50.208 116.497 50.208 120.811C50.208 125.042 50.9811 129.193 52.5273 133.262L71.3262 135.947L58.1426 250.205L46.4238 248.008C44.6335 250.612 43.2093 253.908 42.1514 257.896ZM294.104 97.373C289.466 101.849 287.146 107.668 287.146 114.829C287.146 118.084 288.449 121.462 291.053 124.961C293.738 128.46 297.319 131.39 301.795 133.75C306.352 136.029 311.276 137.168 316.565 137.168C321.448 137.168 326.168 136.191 330.726 134.238C335.283 132.204 338.945 129.478 341.712 126.06C344.56 122.642 345.984 118.898 345.984 114.829C345.984 107.668 343.624 101.849 338.904 97.373C334.266 92.8971 326.819 90.6592 316.565 90.6592C306.312 90.6592 298.825 92.8971 294.104 97.373ZM278.968 173.789C279.375 177.044 280.107 180.666 281.165 184.653L296.424 187.217C295.04 199.831 294.023 212.852 293.372 226.279C292.721 239.707 292.396 252.402 292.396 264.365C292.396 274.619 294.796 281.862 299.598 286.094C304.48 290.326 310.828 292.441 318.641 292.441C326.372 292.441 333.167 290.692 339.026 287.192C344.967 283.612 349.728 279.787 353.309 275.718C356.889 271.567 358.68 269.207 358.68 268.638C358.191 264.243 357.093 260.378 355.384 257.041C353.756 253.704 351.315 250.653 348.06 247.886L329.993 254.478L329.749 254.233C331.621 250.002 333.818 242.962 336.341 233.115C338.945 223.187 341.142 212.974 342.933 202.476C344.804 191.978 345.74 183.473 345.74 176.963C345.74 166.139 343.34 158.164 338.538 153.037C333.737 147.91 325.639 145.347 314.246 145.347C309.038 145.347 303.992 146.12 299.109 147.666C294.308 149.212 290.076 151.125 286.414 153.403C282.833 155.601 280.188 157.798 278.479 159.995L278.357 163.413C278.357 166.994 278.561 170.452 278.968 173.789Z"/></svg>